<svg xmlns="http://www.w3.org/2000/svg" width="76.721" height="13.93" viewBox="0 0 76.721 13.93"><defs><style>.a{fill:#fff;}.b{fill:#f18900;}.c{fill:#c87014;}.d{fill:#edaf19;}.e{fill:#ffd93a;}.f{fill:#bd5a17;}.g{fill:#f9c527;}.h{fill:#f9b200;}.i{fill:#d79929;}.j{fill:#e1a427;}</style></defs><g transform="translate(-1143.514 -334.324)"><path class="a" d="M1214.252,345.7a4.117,4.117,0,0,1-1.064-2.922,3.979,3.979,0,0,1,1.057-2.88,3.531,3.531,0,0,1,2.66-1.1,3.2,3.2,0,0,1,1.739.468,3.062,3.062,0,0,1,1.127,1.221v-1.562h1.307v7.789h-1.307v-1.59a3.079,3.079,0,0,1-1.127,1.243,3.165,3.165,0,0,1-1.739.476,3.476,3.476,0,0,1-2.653-1.143m4.746-.759a3.279,3.279,0,0,0,0-4.228,2.5,2.5,0,0,0-1.858-.794,2.544,2.544,0,0,0-1.858.766,2.8,2.8,0,0,0-.774,2.087,2.982,2.982,0,0,0,.781,2.141,2.531,2.531,0,0,0,3.71.028m4.207-6.015v7.789h1.291v-4.4a2.514,2.514,0,0,1,.575-1.788,2.33,2.33,0,0,1,3.143,0,2.537,2.537,0,0,1,.567,1.788v4.4h1.277v-4.61a3.291,3.291,0,0,0-.865-2.447,2.936,2.936,0,0,0-2.156-.859,2.709,2.709,0,0,0-2.54,1.39v-1.263Zm13.081-.127a3.531,3.531,0,0,1,2.66,1.1,3.978,3.978,0,0,1,1.057,2.879,4.118,4.118,0,0,1-1.064,2.923,3.478,3.478,0,0,1-2.653,1.143,3.157,3.157,0,0,1-2.88-1.719v5.279h-1.292V338.929h1.292v1.561a3.167,3.167,0,0,1,2.88-1.688m-.249,6.938a2.465,2.465,0,0,0,1.858-.816,2.986,2.986,0,0,0,.774-2.143,2.812,2.812,0,0,0-.774-2.092,2.543,2.543,0,0,0-1.858-.766,2.5,2.5,0,0,0-1.858.793,3.265,3.265,0,0,0,0,4.221,2.492,2.492,0,0,0,1.858.8m5.583-6.81v7.789h1.291v-4.255a2.5,2.5,0,0,1,.517-1.8,2.047,2.047,0,0,1,1.511-.517h.341V338.8a2.424,2.424,0,0,0-2.369,1.448v-1.32Zm5.781,6.81a4,4,0,0,1-1.072-2.909,3.929,3.929,0,0,1,1.121-2.914,4.1,4.1,0,0,1,5.618,0,3.917,3.917,0,0,1,1.122,2.907,3.833,3.833,0,0,1-1.171,2.908,3.992,3.992,0,0,1-2.859,1.115,3.67,3.67,0,0,1-2.759-1.108m2.759.043a2.618,2.618,0,0,0,1.894-.787,2.917,2.917,0,0,0,.8-2.178,2.97,2.97,0,0,0-.766-2.172,2.519,2.519,0,0,0-1.865-.78,2.429,2.429,0,0,0-1.838.78,3.042,3.042,0,0,0-.738,2.177,3.115,3.115,0,0,0,.709,2.178,2.33,2.33,0,0,0,1.8.781m8.2-.113a1.052,1.052,0,0,1-.752-.213,1.025,1.025,0,0,1-.213-.738v-4.739h2.014v-1.05H1257.4V337h-1.306v1.929h-1.007v1.05h1.007v4.739a1.78,1.78,0,0,0,2.029,2h1.306v-1.049h-1.065m5.746,1.177a3.579,3.579,0,0,1-2.724-1.107,4.068,4.068,0,0,1-1.051-2.922,4.009,4.009,0,0,1,1.065-2.915,4.042,4.042,0,0,1,5.483-.058,3.626,3.626,0,0,1,1.029,2.66,4.886,4.886,0,0,1-.057.766h-6.2a2.673,2.673,0,0,0,.73,1.837,2.332,2.332,0,0,0,1.724.675,2.406,2.406,0,0,0,1.341-.356,2.093,2.093,0,0,0,.8-.937h1.39a3.575,3.575,0,0,1-1.27,1.689,3.7,3.7,0,0,1-2.263.667m1.745-6.307a2.546,2.546,0,0,0-3.434-.014,2.644,2.644,0,0,0-.751,1.809h4.895a2.433,2.433,0,0,0-.71-1.795m4.2,5.2a3.582,3.582,0,0,0,2.723,1.108,3.667,3.667,0,0,0,2.277-.682,3.523,3.523,0,0,0,1.256-1.831h-1.39a2.03,2.03,0,0,1-2.143,1.448,2.243,2.243,0,0,1-1.78-.775,3.876,3.876,0,0,1,0-4.369,2.244,2.244,0,0,1,1.78-.773,2.336,2.336,0,0,1,1.362.383,2.034,2.034,0,0,1,.781,1.064h1.39a3.419,3.419,0,0,0-1.241-1.859,3.774,3.774,0,0,0-2.292-.652,3.582,3.582,0,0,0-2.723,1.107,4.572,4.572,0,0,0,0,5.831" transform="translate(-56.071 -2.154)"/><g transform="translate(1143.514 334.324)"><path class="b" d="M1143.518,337.116l4.835,2.791v-5.584Z" transform="translate(-1143.518 -334.324)"/><path class="c" d="M1187.2,368.738l-4.835,2.791v-5.584Z" transform="translate(-1174.78 -359.772)"/><path class="d" d="M1182.365,354.44l4.835,2.791v-5.584Z" transform="translate(-1174.78 -348.265)"/><path class="e" d="M1157.591,340.14l4.835,2.791v-5.584Z" transform="translate(-1154.843 -336.757)"/><path class="d" d="M1143.518,365.721l4.835,2.791v-5.584Z" transform="translate(-1143.518 -357.344)"/><path class="f" d="M1157.591,368.74l4.835,2.791v-5.584Z" transform="translate(-1154.843 -359.774)"/><path class="g" d="M1187.2,340.137l-4.835,2.791v-5.584Z" transform="translate(-1174.78 -336.755)"/><path class="h" d="M1148.35,351.416l-4.836,2.793v-5.585Z" transform="translate(-1143.514 -345.832)"/><path class="i" d="M1173.117,365.721l-4.835,2.791v-5.584Z" transform="translate(-1163.447 -357.344)"/><path class="j" d="M1143.518,365.714l4.835,2.791v-5.584Z" transform="translate(-1143.518 -357.338)"/></g></g></svg>