<svg xmlns="http://www.w3.org/2000/svg" width="72.717" height="28.677" viewBox="0 0 72.717 28.677"><defs><style>.a{fill:#fff;}</style></defs><path class="a" d="M1493.86,349.99a3.775,3.775,0,0,0-.88-1.313,4.15,4.15,0,0,0-1.418-.88,5.1,5.1,0,0,0-1.806-.313h-5.208V361.2h2.1v-5.388h3.119a4.854,4.854,0,0,0,2.313-.537,3.9,3.9,0,0,0,1.537-1.492,4.607,4.607,0,0,0,.239-3.791Zm-2.433,3.313a2.413,2.413,0,0,1-1.761.612h-3v-4.567h3a2.529,2.529,0,0,1,1.761.612,2.225,2.225,0,0,1,.657,1.687A2.157,2.157,0,0,1,1491.427,353.3Z" transform="translate(-1421.441 -337.311)"/><path class="a" d="M1425.36,354.008a3.431,3.431,0,0,0-1.015-.627,7.477,7.477,0,0,0-1.537-.373l-1.567-.239a3.33,3.33,0,0,1-.881-.239,2.348,2.348,0,0,1-.671-.388,1.663,1.663,0,0,1-.522-1.283,2.11,2.11,0,0,1,.3-1.1,2.049,2.049,0,0,1,.866-.761,3.079,3.079,0,0,1,1.343-.268,6.5,6.5,0,0,1,1.119.1,3.831,3.831,0,0,1,.985.328,3.6,3.6,0,0,1,.881.642l1.343-1.313a5.367,5.367,0,0,0-1.865-1.194,6.743,6.743,0,0,0-2.388-.373,5.618,5.618,0,0,0-2.433.507,3.7,3.7,0,0,0-1.6,1.418,3.957,3.957,0,0,0-.552,2.1,3.386,3.386,0,0,0,1,2.612,4.628,4.628,0,0,0,2.612,1.1l1.612.224a4.1,4.1,0,0,1,.925.209,1.99,1.99,0,0,1,.373,3.343,3.392,3.392,0,0,1-2.074.552,7.456,7.456,0,0,1-1.328-.119,4.189,4.189,0,0,1-1.164-.418,4.585,4.585,0,0,1-1.015-.776l-1.388,1.373a5.982,5.982,0,0,0,2.134,1.388,7.964,7.964,0,0,0,2.731.418,6.833,6.833,0,0,0,1.97-.269,4.592,4.592,0,0,0,1.567-.806,3.448,3.448,0,0,0,1.03-1.284,3.862,3.862,0,0,0,.358-1.671A3.481,3.481,0,0,0,1425.36,354.008Z" transform="translate(-1366.164 -336.851)"/><rect class="a" width="2.104" height="13.715" transform="translate(34.049 10.172)"/><path class="a" d="M1354.405,347.483l-5.029,13.715h2.224l.94-2.761h5.417l.94,2.761h2.209l-5.03-13.715Zm-1.239,9.193,2.134-6.089,2.074,6.089Z" transform="translate(-1311.282 -337.311)"/><path class="a" d="M1169.37,301.218l-1.985-2.372a1.1,1.1,0,0,1,.132.192l-.148-.178c-.866-1.044-3.356-.656-6.476.852-1.417-3.165-3.09-5.061-4.432-4.822l-.164.03a1.286,1.286,0,0,1,.178-.046l-3.044.538c-1.014.178-1.729,1.545-2.094,3.675-3.288.342-5.774,1.679-6.546,3.8l-.059.159c.018-.059.039-.116.059-.176l-.6,1.643-.449,1.223c.016-.043.032-.084.05-.125l-.034.093c-.779,2.153.333,4.74,2.725,7.073-1.007,1.871-1.283,3.382-.636,4.152l1.984,2.372a1.3,1.3,0,0,1-.13-.187l.146.173c.864,1.028,3.251.581,6.252-.927,1.328,3.09,2.864,4.956,4.193,4.717l.232-.041a1.309,1.309,0,0,1-.246.071l3.044-.538c.991-.175,1.748-1.508,2.179-3.589,3.336-.244,5.86-1.508,6.642-3.664l.068-.187c-.02.068-.043.137-.068.2l1.028-2.837c.773-2.119-.269-4.744-2.566-7.123C1169.7,303.508,1170.029,302,1169.37,301.218Zm-8.716,15.025a21.951,21.951,0,0,1-2.388-.415c.772-.542,1.563-1.137,2.356-1.777C1160.656,314.814,1160.668,315.548,1160.654,316.243Zm2.613-8.518c-.171-.975-.378-1.925-.613-2.837a23.133,23.133,0,0,1,2.019,1.189C1164.243,306.618,1163.774,307.169,1163.268,307.725Zm-5.972-8.283a21.43,21.43,0,0,0-3.1-.412,9.513,9.513,0,0,1,.9-2.921A10.977,10.977,0,0,1,1157.3,299.443Zm-3.388,2.723a22.941,22.941,0,0,1,2.286.38c-.752.531-1.515,1.128-2.27,1.752C1153.893,303.558,1153.889,302.844,1153.907,302.165Zm-9.37,2.242c1.281-1.465,3.639-2.281,6.526-2.37a35.863,35.863,0,0,0,.2,4.669,32.21,32.21,0,0,0-3.345,3.844C1145.8,308.571,1144.565,306.37,1144.537,304.408Zm3.051,13.1a9.512,9.512,0,0,1,1.267-2.787,23.4,23.4,0,0,0,2.83,1.663A11.261,11.261,0,0,1,1147.588,317.5Zm2.844-4.977c.435-.545.918-1.105,1.44-1.67.193,1.007.422,1.971.663,2.9A21.836,21.836,0,0,1,1150.432,312.526Zm5.193,1.675a39.472,39.472,0,0,1-1.135-4.717c-.063-.358-.12-.711-.173-1.062q.748-.687,1.561-1.37c1.089-.911,2.178-1.745,3.238-2.477.33,1.237.642,2.582.882,3.969.123.7.23,1.394.317,2.076-.26.23-.524.458-.8.686A36.124,36.124,0,0,1,1155.625,314.2Zm1.6,4.195a23.1,23.1,0,0,0,3.231.545,9.371,9.371,0,0,1-.82,2.944A11.216,11.216,0,0,1,1157.223,318.4Zm13.168-4.582c-1.281,1.5-3.653,2.388-6.546,2.541a32.353,32.353,0,0,0-.089-5.074,35.991,35.991,0,0,0,3.169-3.475C1169.074,309.733,1170.352,311.872,1170.391,313.814Zm-6.587-12a10.811,10.811,0,0,1,3.853-1.142,9.6,9.6,0,0,1-1.192,2.828A21.658,21.658,0,0,0,1163.8,301.814Z" transform="translate(-1143.514 -294.433)"/><path class="a" d="M1331.833,293.928h.015q-.023.176-.042.367t-.031.374q-.011.183-.019.344t-.008.275v2.826h.809v-5.148h-.954l-1.13,2.558a5.747,5.747,0,0,0-.248.638q-.1.3-.149.523h-.016a4.868,4.868,0,0,0-.145-.523,6.313,6.313,0,0,0-.252-.638l-1.123-2.558h-.955v5.148h.81v-2.826c0-.076,0-.168-.008-.275s-.012-.221-.019-.344-.019-.247-.034-.374-.031-.25-.046-.367h.023q.084.321.175.615a5.378,5.378,0,0,0,.221.584l.955,2.177h.817l.955-2.177a5.231,5.231,0,0,0,.221-.584Q1331.749,294.249,1331.833,293.928Z" transform="translate(-1293.526 -292.882)"/><path class="a" d="M1360.9,303.7a1.491,1.491,0,0,0,.573.386,2.2,2.2,0,0,0,.8.134,2.551,2.551,0,0,0,1.222-.267l-.183-.58a2.1,2.1,0,0,1-.466.16,2.277,2.277,0,0,1-.489.054,1.148,1.148,0,0,1-.752-.241,1.112,1.112,0,0,1-.363-.745h2.36a2.723,2.723,0,0,0,.065-.314,2.43,2.43,0,0,0,.027-.36,2.036,2.036,0,0,0-.1-.636,1.31,1.31,0,0,0-.29-.5,1.327,1.327,0,0,0-.48-.322,1.755,1.755,0,0,0-.659-.115,1.883,1.883,0,0,0-.785.149,1.427,1.427,0,0,0-.537.413,1.742,1.742,0,0,0-.309.616,2.753,2.753,0,0,0-.1.75,2.638,2.638,0,0,0,.115.8A1.636,1.636,0,0,0,1360.9,303.7Zm.592-2.428a.815.815,0,0,1,.691-.306.664.664,0,0,1,.584.256,1.248,1.248,0,0,1,.179.722v.137h-1.726A1.494,1.494,0,0,1,1361.49,301.27Z" transform="translate(-1320.299 -298.903)"/><path class="a" d="M1384.544,301.625a1.011,1.011,0,0,1,.374-.374,1.027,1.027,0,0,1,.535-.145.389.389,0,0,1,.378.179,1.059,1.059,0,0,1,.1.493v2.391h.787v-2.513a1.2,1.2,0,0,1,.366-.393.912.912,0,0,1,.527-.157.4.4,0,0,1,.382.179,1.02,1.02,0,0,1,.1.493v2.391h.787v-2.436a1.639,1.639,0,0,0-.26-.978.908.908,0,0,0-.787-.359,1.2,1.2,0,0,0-.374.057,1.4,1.4,0,0,0-.329.157,1.875,1.875,0,0,0-.279.221,1.96,1.96,0,0,0-.225.26.986.986,0,0,0-.336-.512.956.956,0,0,0-.6-.183,1.252,1.252,0,0,0-.389.057,1.452,1.452,0,0,0-.317.145,1.37,1.37,0,0,0-.248.195,2.168,2.168,0,0,0-.183.206l-.107-.519h-.68v3.689h.787Z" transform="translate(-1339.302 -298.936)"/><path class="a" d="M1419.235,297.564a1.423,1.423,0,0,0,.428.439,1.208,1.208,0,0,0,.7.195,1.4,1.4,0,0,0,.6-.13,1.367,1.367,0,0,0,.485-.382,1.813,1.813,0,0,0,.321-.622,2.883,2.883,0,0,0,.115-.852,2.756,2.756,0,0,0-.088-.691,1.928,1.928,0,0,0-.263-.6,1.384,1.384,0,0,0-.447-.42,1.244,1.244,0,0,0-.645-.16,1.364,1.364,0,0,0-.4.057,1.645,1.645,0,0,0-.34.145,1.578,1.578,0,0,0-.271.195,1.643,1.643,0,0,0-.195.206v-1.978h-.809v5.148h.7Zm0-1.993a1.628,1.628,0,0,1,.432-.39,1.037,1.037,0,0,1,.561-.16.73.73,0,0,1,.619.309,1.461,1.461,0,0,1,.229.882,2.232,2.232,0,0,1-.073.611,1.15,1.15,0,0,1-.195.4.716.716,0,0,1-.29.221.917.917,0,0,1-.351.069.816.816,0,0,1-.363-.084.889.889,0,0,1-.3-.237,1.144,1.144,0,0,1-.2-.37,1.534,1.534,0,0,1-.073-.485Z" transform="translate(-1367.555 -292.882)"/><path class="a" d="M1442.121,303.7a1.491,1.491,0,0,0,.573.386,2.2,2.2,0,0,0,.8.134,2.549,2.549,0,0,0,1.222-.267l-.183-.58a2.1,2.1,0,0,1-.466.16,2.273,2.273,0,0,1-.489.054,1.149,1.149,0,0,1-.752-.241,1.112,1.112,0,0,1-.363-.745h2.36a2.723,2.723,0,0,0,.065-.314,2.463,2.463,0,0,0,.027-.36,2.044,2.044,0,0,0-.1-.636,1.313,1.313,0,0,0-.29-.5,1.327,1.327,0,0,0-.48-.322,1.756,1.756,0,0,0-.659-.115,1.882,1.882,0,0,0-.785.149,1.425,1.425,0,0,0-.537.413,1.734,1.734,0,0,0-.309.616,2.753,2.753,0,0,0-.1.75,2.638,2.638,0,0,0,.115.8A1.632,1.632,0,0,0,1442.121,303.7Zm.592-2.428a.815.815,0,0,1,.691-.306.664.664,0,0,1,.584.256,1.246,1.246,0,0,1,.179.722v.137h-1.726A1.494,1.494,0,0,1,1442.713,301.27Z" transform="translate(-1386.492 -298.903)"/><path class="a" d="M1466.747,300.395a.868.868,0,0,0-.332.061,1.011,1.011,0,0,0-.264.157,1.183,1.183,0,0,0-.2.218q-.088.122-.156.237l-.122-.588h-.687v3.689h.81v-2.5a.864.864,0,0,1,.332-.378.909.909,0,0,1,.477-.126.685.685,0,0,1,.466.153l.2-.764a1.336,1.336,0,0,0-.183-.1A.793.793,0,0,0,1466.747,300.395Z" transform="translate(-1405.496 -298.936)"/><path class="a" d="M1492.21,303.69a1.521,1.521,0,0,0,.558.412,2.192,2.192,0,0,0,1.589,0,1.556,1.556,0,0,0,.561-.412,1.688,1.688,0,0,0,.332-.615,2.7,2.7,0,0,0,0-1.5,1.689,1.689,0,0,0-.332-.615,1.554,1.554,0,0,0-.561-.412,2.192,2.192,0,0,0-1.589,0,1.519,1.519,0,0,0-.558.412,1.772,1.772,0,0,0-.332.615,2.608,2.608,0,0,0,0,1.5A1.77,1.77,0,0,0,1492.21,303.69Zm.6-2.3a.832.832,0,0,1,.748-.359.842.842,0,0,1,.752.359,1.94,1.94,0,0,1,0,1.871.841.841,0,0,1-.752.359.832.832,0,0,1-.748-.359,1.968,1.968,0,0,1,0-1.871Z" transform="translate(-1427.325 -298.936)"/><path class="a" d="M1515.114,297.744h.786v-3.086h1.039v-.611H1515.9v-.2a1,1,0,0,1,.119-.53.512.512,0,0,1,.47-.189,1.242,1.242,0,0,1,.519.115l.168-.527a1.685,1.685,0,0,0-.363-.145,1.764,1.764,0,0,0-.462-.053,1.156,1.156,0,0,0-.951.353,1.5,1.5,0,0,0-.286.969v.213h-.565v.611h.565Z" transform="translate(-1445.891 -292.512)"/></svg>